<?xml version="1.0" encoding="utf-8"?>
<svg width="711.80188pt" height="258.30469pt" viewBox="0 0 711.80188 258.30469" version="1.1" id="svg2" xmlns="http://www.w3.org/2000/svg">
  <g id="surface1" transform="translate(-40.045801,-148)">
    <path style="fill: rgb(171, 46, 51); fill-opacity: 1; fill-rule: nonzero; stroke: none;" d="M 224.09 309.814 L 224.09 197.997 L 204.768 197.994 L 204.768 312.635 C 204.768 312.635 205.098 312.9 204.105 313.698 C 203.113 314.497 202.408 313.849 202.408 313.849 L 200.518 313.849 L 200.518 197.991 L 181.139 197.991 L 181.139 313.849 L 179.253 313.849 C 179.253 313.849 178.544 314.497 177.551 313.698 C 176.558 312.9 176.888 312.635 176.888 312.635 L 176.888 197.994 L 157.57 197.997 L 157.57 309.814 C 157.57 309.814 156.539 316.772 162.615 321.658 C 168.691 326.546 177.551 326.049 177.551 326.049 L 204.11 326.049 C 204.11 326.049 212.965 326.546 219.041 321.658 C 225.118 316.772 224.09 309.814 224.09 309.814" id="path5"/>
    <path style="fill: rgb(171, 46, 51); fill-opacity: 1; fill-rule: nonzero; stroke: none;" d="M 253.892 299.821 C 253.892 299.821 253.632 300.965 251.888 300.965 C 250.143 300.965 249.629 299.821 249.629 299.821 L 249.629 278.477 C 249.629 278.477 249.433 278.166 250.078 277.645 C 250.726 277.124 251.243 277.179 251.243 277.179 L 253.892 277.228 Z M 251.588 199.144 C 230.266 199.144 231.071 213.218 231.071 213.218 L 231.071 254.303 L 249.675 254.303 L 249.675 213.69 C 249.675 213.69 249.775 211.276 251.787 211.276 C 253.8 211.276 254 213.542 254 213.542 L 254 265.146 L 246.156 265.146 C 246.156 265.146 240.022 264.579 235.495 268.22 C 230.968 271.858 231.071 276.791 231.071 276.791 L 231.071 298.955 C 231.071 298.955 229.461 308.016 238.914 312.058 C 248.368 316.103 254.805 309.795 254.805 309.795 L 254.805 312.706 L 272.508 312.706 L 272.508 212.895 C 272.508 212.895 272.907 199.144 251.588 199.144" id="path7"/>
    <path style="fill: rgb(171, 46, 51); fill-opacity: 1; fill-rule: nonzero; stroke: none;" d="M 404.682 318.261 C 404.682 318.261 404.398 319.494 402.485 319.494 C 400.568 319.494 400.001 318.261 400.001 318.261 L 400.001 295.216 C 400.001 295.216 399.786 294.879 400.496 294.315 C 401.208 293.757 401.776 293.812 401.776 293.812 L 404.682 293.868 Z M 402.152 209.568 C 378.728 209.568 379.61 224.761 379.61 224.761 L 379.61 269.117 L 400.051 269.117 L 400.051 225.273 C 400.051 225.273 400.162 222.665 402.374 222.665 C 404.582 222.665 404.805 225.109 404.805 225.109 L 404.805 280.82 L 396.187 280.82 C 396.187 280.82 389.447 280.213 384.475 284.141 C 379.499 288.072 379.61 293.396 379.61 293.396 L 379.61 317.324 C 379.61 317.324 377.843 327.104 388.232 331.469 C 398.616 335.838 405.69 329.027 405.69 329.027 L 405.69 332.169 L 425.133 332.169 L 425.133 224.413 C 425.133 224.413 425.578 209.568 402.152 209.568" id="path9"/>
    <path style="fill: rgb(171, 46, 51); fill-opacity: 1; fill-rule: nonzero; stroke: none;" d="M 321.114 328.636 L 321.114 206.587 L 302.582 206.587 L 302.582 304.902 C 302.582 304.902 303.211 307.094 300.624 307.094 C 298.035 307.094 298.316 304.902 298.316 304.902 L 298.316 206.587 L 279.784 206.587 C 279.784 206.587 279.922 304.338 279.922 306.756 C 279.922 309.175 280.27 310.526 280.831 312.379 C 281.391 314.238 282.579 318.116 290.901 319.186 C 299.224 320.256 302.44 315.813 302.44 315.813 L 302.44 327.736 C 302.44 327.736 302.862 329.366 300.554 329.366 C 298.246 329.366 298.316 327.849 298.316 327.849 L 298.316 322.957 L 279.642 322.957 L 279.642 327.791 C 279.642 327.791 278.523 341.514 300.274 341.514 C 322.026 341.514 321.114 328.636 321.114 328.636" id="path11"/>
    <path style="fill: rgb(171, 46, 51); fill-opacity: 1; fill-rule: nonzero; stroke: none;" d="M 352.449 209.811 L 352.449 273.495 C 352.449 277.49 347.911 277.194 347.911 277.194 L 347.911 207.592 C 347.911 207.592 346.929 207.542 349.567 207.542 C 352.817 207.542 352.449 209.811 352.449 209.811 M 352.326 310.393 C 352.326 310.393 352.143 312.366 350.425 312.366 L 348.033 312.366 L 348.033 289.478 L 349.628 289.478 C 349.628 289.478 352.326 289.428 352.326 292.092 Z M 371.341 287.505 C 371.341 284.791 370.727 282.966 368.826 280.993 C 366.925 279.02 363.367 277.441 363.367 277.441 C 363.367 277.441 365.514 276.948 368.704 274.728 C 371.893 272.509 371.525 267.921 371.525 267.921 L 371.525 212.919 C 371.525 212.919 371.801 204.509 366.925 200.587 C 362.049 196.665 352.515 196.363 352.515 196.363 L 328.711 196.363 L 328.711 324.107 L 350.609 324.107 C 360.055 324.107 364.594 322.232 368.336 318.286 C 372.077 314.34 371.341 308.321 371.341 308.321 Z M 371.341 287.505" id="path13"/>
    <path style="fill: rgb(171, 46, 51); fill-opacity: 1; fill-rule: nonzero; stroke: none;" d="M 452.747 226.744 L 452.747 268.806 L 471.581 268.806 L 471.581 227.459 C 471.581 227.459 471.846 213.532 450.516 213.532 C 429.182 213.532 430.076 227.533 430.076 227.533 L 430.076 313.381 C 430.076 313.381 428.825 327.523 450.872 327.523 C 472.919 327.523 471.401 313.526 471.401 313.526 L 471.401 292.064 L 452.835 292.064 L 452.835 314.389 C 452.835 314.389 452.923 315.61 450.961 315.61 C 448.997 315.61 448.729 314.389 448.729 314.389 L 448.729 226.524 C 448.729 226.524 448.821 225.378 450.692 225.378 C 452.566 225.378 452.747 226.744 452.747 226.744" id="path15"/>
    <path style="fill: rgb(171, 46, 51); fill-opacity: 1; fill-rule: nonzero; stroke: none;" d="M 520.624 281.841 C 517.672 278.98 514.317 277.904 514.317 277.904 C 514.317 277.904 517.538 277.796 520.489 274.775 C 523.442 271.753 523.173 267.924 523.173 267.924 L 523.173 208.211 L 503.185 208.211 L 503.185 276.014 C 503.185 276.014 503.185 277.361 501.172 277.361 L 498.761 277.309 L 498.761 191.655 L 478.973 191.655 L 478.973 327.905 L 498.692 327.905 L 498.692 290.039 L 501.709 290.039 C 501.709 290.039 502.112 290.039 502.648 290.523 C 503.185 291.01 503.185 291.602 503.185 291.602 L 503.185 327.905 L 523.307 327.905 L 523.307 288.636 C 523.307 288.636 523.576 284.699 520.624 281.841" id="path17"/>
    <path style="fill-opacity: 1; fill-rule: nonzero; stroke: none; fill: rgb(255, 222, 87);" d="M 638.021 327.182 L 638.021 205.132 L 619.489 205.132 L 619.489 303.448 C 619.489 303.448 620.119 305.64 617.53 305.64 C 614.944 305.64 615.223 303.448 615.223 303.448 L 615.223 205.132 L 596.692 205.132 C 596.692 205.132 596.83 302.884 596.83 305.301 C 596.83 307.721 597.178 309.071 597.738 310.924 C 598.299 312.784 599.487 316.662 607.809 317.732 C 616.132 318.802 619.349 314.359 619.349 314.359 L 619.349 326.281 C 619.349 326.281 619.77 327.913 617.462 327.913 C 615.154 327.913 615.223 326.396 615.223 326.396 L 615.223 321.502 L 596.55 321.502 L 596.55 326.336 C 596.55 326.336 595.43 340.059 617.182 340.059 C 638.934 340.059 638.021 327.182 638.021 327.182" id="path-1"/>
    <path d="M 592.159 233.846 C 593.222 238.576 593.75 243.873 593.745 249.735 C 593.74 255.598 593.135 261.281 591.931 266.782 C 590.726 272.285 588.901 277.144 586.453 281.361 C 584.006 285.578 580.938 288.946 577.248 291.466 C 573.559 293.985 569.226 295.246 564.25 295.246 C 561.585 295.246 559.008 294.936 556.521 294.32 C 554.033 293.703 551.813 292.854 549.859 291.774 C 547.905 290.694 546.284 289.512 544.997 288.226 C 543.71 286.94 542.934 285.578 542.668 284.138 L 542.629 328.722 L 526.369 328.722 L 526.475 207.466 L 541.003 207.466 L 542.728 216.259 C 544.507 213.38 547.197 211.065 550.797 209.317 C 554.397 207.568 558.374 206.694 562.728 206.694 C 565.66 206.694 568.637 207.157 571.657 208.083 C 574.677 209.008 577.497 210.551 580.116 212.711 C 582.735 214.871 585.11 217.698 587.239 221.196 C 589.369 224.692 591.009 228.909 592.159 233.846 Z M 558.932 280.744 C 561.597 280.744 564.019 279.972 566.197 278.429 C 568.376 276.887 570.243 274.804 571.801 272.182 C 573.358 269.559 574.582 266.423 575.474 262.772 C 576.366 259.121 576.814 255.238 576.817 251.124 C 576.821 247.113 576.424 243.307 575.628 239.708 C 574.831 236.108 573.701 232.92 572.237 230.143 C 570.774 227.366 568.999 225.155 566.912 223.51 C 564.825 221.864 562.405 221.041 559.65 221.041 C 556.985 221.041 554.54 221.813 552.318 223.356 C 550.095 224.898 548.183 226.981 546.581 229.603 C 544.98 232.226 543.755 235.311 542.908 238.86 C 542.061 242.408 541.635 246.239 541.632 250.353 C 541.628 254.466 542.002 258.349 542.754 262 C 543.506 265.651 544.637 268.865 546.145 271.642 C 547.653 274.419 549.472 276.63 551.603 278.276 C 553.734 279.922 556.177 280.744 558.932 280.744 Z" style="fill: rgb(69, 132, 182); white-space: pre;"/>
  </g>
</svg>