<svg xmlns="http://www.w3.org/2000/svg" viewBox="117.46 6.61 480.52 186.9"><defs><style>@import url(https://fonts.googleapis.com/css2?family=Allerta%3Aital%2Cwght%400%2C400&amp;display=swap);</style></defs><g fill="#ab2e33"><path d="M184.044 161.814V49.997l-19.322-.003v114.641s.33.265-.663 1.063-1.697.151-1.697.151h-1.89V49.991h-19.379v115.858h-1.886s-.709.648-1.702-.151-.663-1.063-.663-1.063V49.994l-19.318.003v111.817s-1.031 6.958 5.045 11.844 14.936 4.391 14.936 4.391h26.559s8.855.497 14.931-4.391 5.049-11.844 5.049-11.844m29.802-9.993s-.26 1.144-2.004 1.144-2.259-1.144-2.259-1.144v-21.344s-.196-.311.449-.832 1.165-.466 1.165-.466l2.649.049zm-2.304-100.677c-21.322 0-20.517 14.074-20.517 14.074v41.085h18.604V65.69s.1-2.414 2.112-2.414 2.213 2.266 2.213 2.266v51.604h-7.844s-6.134-.567-10.661 3.074-4.424 8.571-4.424 8.571v22.164s-1.61 9.061 7.843 13.103 15.891-2.263 15.891-2.263v2.911h17.703V64.895s.399-13.751-20.92-13.751m153.094 119.117s-.284 1.233-2.197 1.233-2.484-1.233-2.484-1.233v-23.045s-.215-.337.495-.901c.712-.558 1.28-.503 1.28-.503l2.906.056zm-2.53-108.693c-23.424 0-22.542 15.193-22.542 15.193v44.356h20.441V77.273s.111-2.608 2.323-2.608 2.431 2.444 2.431 2.444v55.711h-8.618s-6.74-.607-11.712 3.321-4.865 9.255-4.865 9.255v23.928s-1.767 9.78 8.622 14.145 17.458-2.442 17.458-2.442v3.142h19.443V76.413s.445-14.845-22.981-14.845m-81.038 119.068V58.587h-18.532v98.315s.629 2.192-1.958 2.192-2.308-2.192-2.308-2.192V58.587h-18.532l.138 100.169c0 2.419.348 3.77.909 5.623.56 1.859 1.748 5.737 10.07 6.807s11.539-3.373 11.539-3.373v11.923s.422 1.63-1.886 1.63-2.238-1.517-2.238-1.517v-4.892h-18.674v4.834s-1.119 13.723 20.632 13.723 20.84-12.878 20.84-12.878M312.403 61.811v63.684c0 3.995-4.538 3.699-4.538 3.699V59.592s-.982-.05 1.656-.05c3.25 0 2.882 2.269 2.882 2.269m-.123 100.582s-.183 1.973-1.901 1.973h-2.392v-22.888h1.595s2.698-.05 2.698 2.614zm19.015-22.888c0-2.714-.614-4.539-2.515-6.512s-5.459-3.552-5.459-3.552 2.147-.493 5.337-2.713 2.821-6.807 2.821-6.807V64.919s.276-8.41-4.6-12.332-14.41-4.224-14.41-4.224h-23.804v127.744h21.898c9.446 0 13.985-1.875 17.727-5.821s3.005-9.965 3.005-9.965zm81.406-60.761v42.062h18.834V79.459s.265-13.927-21.065-13.927-20.44 14.001-20.44 14.001v85.848s-1.251 14.142 20.796 14.142 20.529-13.997 20.529-13.997v-21.462h-18.566v22.325s.088 1.221-1.874 1.221-2.232-1.221-2.232-1.221V78.524s.092-1.146 1.963-1.146 2.055 1.366 2.055 1.366m67.877 55.097c-2.952-2.861-6.307-3.937-6.307-3.937s3.221-.108 6.172-3.129 2.684-6.851 2.684-6.851V60.211h-19.988v67.803s0 1.347-2.013 1.347l-2.411-.052V43.655h-19.788v136.25h19.719v-37.866h3.017s.403 0 .939.484.537 1.079.537 1.079v36.303h20.122v-39.269s.269-3.937-2.683-6.795"/></g><path d="M597.975 179.182V57.132h-18.532v98.316s.63 2.192-1.959 2.192-2.307-2.192-2.307-2.192V57.132h-18.531l.138 100.169c0 2.42.348 3.77.908 5.623.561 1.86 1.749 5.738 10.071 6.808s11.54-3.373 11.54-3.373v11.922s.421 1.632-1.887 1.632-2.239-1.517-2.239-1.517v-4.894h-18.673v4.834s-1.12 13.723 20.632 13.723 20.839-12.877 20.839-12.877" fill="#ffde57"/><text style="white-space:pre" transform="matrix(.90986 0 -.00092 1.06298 7.251 -234.669)" x="514.96" y="360.402" fill="#4584b6" font-family="Allerta" font-size="150">p</text></svg>