<?xml version="1.0" standalone="no"?>
<!DOCTYPE svg PUBLIC "-//W3C//DTD SVG 20010904//EN"
 "http://www.w3.org/TR/2001/REC-SVG-20010904/DTD/svg10.dtd">
<svg version="1.0" xmlns="http://www.w3.org/2000/svg"
 width="629.000000pt" height="103.000000pt" viewBox="0 0 629.000000 103.000000"
 preserveAspectRatio="xMidYMid meet">

<g transform="translate(0.000000,103.000000) scale(0.100000,-0.100000)"
fill="#000000" stroke="none">
<path d="M0 515 l0 -515 3145 0 3145 0 0 515 0 515 -3145 0 -3145 0 0 -515z
m5413 439 c31 -6 36 -10 31 -26 -3 -10 0 -26 7 -34 6 -8 10 -17 7 -20 -3 -2
-17 11 -32 31 -15 19 -41 39 -59 44 -38 11 -10 14 46 5z m150 -11 c-7 -2 -21
-2 -30 0 -10 3 -4 5 12 5 17 0 24 -2 18 -5z m-4869 -23 c-6 -6 -21 -6 -39 -1
-30 9 -30 9 10 10 25 1 36 -2 29 -9z m452 -37 c-3 -26 -15 -65 -25 -88 -10
-22 -21 -64 -25 -94 -3 -29 -14 -72 -26 -95 -11 -23 -20 -51 -20 -61 0 -30
-39 -152 -53 -163 -6 -5 -45 -12 -85 -14 -72 -5 -102 4 -102 33 0 6 -9 31 -21
56 -11 25 -26 72 -33 103 -6 31 -17 64 -24 73 -8 9 -22 37 -32 64 l-18 48 -16
-39 c-9 -21 -16 -44 -16 -50 0 -6 -7 -24 -15 -40 -8 -16 -24 -63 -34 -106 -11
-43 -26 -93 -34 -112 -14 -34 -15 -35 -108 -46 -70 -9 -96 -9 -106 0 -21 17
-43 64 -43 92 0 14 -4 27 -9 31 -12 7 -50 120 -66 200 -8 35 -25 81 -40 103
-14 22 -27 52 -28 68 -2 28 0 29 48 31 28 1 82 5 120 9 54 4 73 3 82 -7 11
-15 53 -148 53 -170 0 -7 9 -32 21 -56 20 -41 39 -49 39 -17 0 8 -5 12 -10 9
-6 -3 -13 2 -16 12 -3 10 -10 26 -15 36 -14 26 7 21 29 -8 l20 -26 7 33 c7 35
41 149 56 185 7 19 16 23 56 23 27 0 80 2 120 6 80 6 88 1 97 -71 3 -20 9 -42
14 -48 5 -7 20 -43 32 -82 13 -38 24 -72 26 -74 2 -2 13 4 24 14 13 12 20 31
20 55 0 20 7 56 15 81 7 24 19 63 25 87 12 47 31 60 89 61 l34 1 -7 -47z
m3131 41 c17 -3 34 -12 37 -20 3 -7 1 -48 -4 -91 -4 -43 -7 -80 -4 -82 2 -2
11 2 20 10 9 7 24 18 34 24 9 5 55 40 101 77 79 64 87 68 136 68 28 0 54 -4
58 -10 3 -5 12 -7 20 -3 9 3 15 -1 15 -9 0 -13 -180 -158 -197 -158 -4 0 -14
-9 -20 -20 -11 -17 -7 -27 27 -76 22 -32 40 -63 40 -70 0 -7 6 -19 14 -26 7
-8 37 -48 65 -89 l52 -74 -28 -3 c-51 -5 -74 -12 -68 -22 9 -14 -59 -12 -73 2
-20 20 -13 30 10 14 34 -24 44 -19 17 8 -25 25 -109 140 -109 149 0 7 -60 97
-64 97 -2 0 -11 -10 -22 -22 -18 -21 -18 -21 0 -15 10 4 25 2 32 -4 18 -15 19
-35 2 -22 -7 6 -25 13 -39 17 -34 8 -39 -5 -39 -94 0 -38 -3 -75 -6 -84 -6
-16 -54 -22 -67 -9 -4 3 -40 7 -81 8 -101 2 -110 10 -104 97 3 37 10 73 16 80
6 8 10 77 10 174 0 89 2 166 6 172 6 11 162 15 213 6z m301 -1 c-25 -2 -52
-11 -58 -19 -7 -7 -17 -14 -23 -14 -5 0 -2 9 8 20 14 16 29 20 69 18 l51 -2
-47 -3z m809 -9 c33 -21 65 -89 62 -132 -1 -21 1 -47 5 -59 9 -28 -26 -111
-51 -120 -10 -3 -25 -12 -33 -19 -10 -8 -70 -15 -170 -21 l-155 -8 4 -73 c4
-93 -10 -112 -80 -112 -26 0 -60 5 -74 12 -19 8 -31 8 -51 -1 -45 -20 -55 -1
-55 98 0 47 -1 111 -3 141 -2 30 -5 107 -7 170 l-4 115 65 2 c36 2 103 7 150
11 150 15 372 13 397 -4z m338 -19 c11 -14 46 -54 78 -88 l58 -62 62 65 c34
36 75 73 89 83 28 18 113 24 122 9 3 -5 -32 -51 -77 -102 -147 -167 -134 -143
-139 -253 -3 -54 -10 -103 -16 -109 -8 -8 -8 -17 -1 -30 14 -26 11 -28 -47
-29 -119 -2 -165 3 -174 22 -6 10 -9 69 -8 131 l2 113 -57 75 c-32 41 -80 102
-107 134 -27 33 -47 62 -45 66 3 4 58 6 122 4 113 -3 119 -5 138 -29z m-4233
13 c16 -13 98 -150 98 -164 0 -4 29 -65 65 -135 36 -71 65 -135 65 -143 0 -10
-14 -17 -37 -21 -21 -4 -48 -10 -61 -16 -40 -16 -51 -10 -77 41 -29 57 -35 59
-157 38 -65 -11 -71 -14 -84 -43 -10 -25 -21 -34 -46 -38 -41 -6 -61 8 -48 33
15 28 12 38 -12 42 -18 2 -23 10 -24 36 -1 27 3 35 23 43 13 5 34 9 46 9 23 0
57 47 57 78 0 9 10 33 22 52 14 24 21 52 22 92 1 49 4 58 24 67 13 6 31 11 40
11 9 0 26 7 36 15 24 18 28 18 48 3z m1701 0 c16 -12 97 -143 97 -157 0 -3 32
-69 70 -146 39 -76 67 -142 62 -147 -4 -4 -28 -12 -52 -17 -25 -6 -57 -13 -72
-17 -25 -6 -29 -2 -50 42 -14 30 -31 50 -43 53 -11 2 -57 -2 -103 -9 -79 -12
-83 -13 -96 -45 -10 -24 -22 -34 -46 -38 -43 -9 -53 -1 -45 39 5 30 3 34 -15
34 -17 0 -20 6 -20 39 0 40 13 50 65 51 19 0 55 48 55 72 0 6 8 29 19 52 32
72 41 107 31 127 -8 14 -5 21 12 33 12 9 32 16 43 16 11 0 29 7 39 15 24 18
28 18 49 3z m-3021 -11 c-29 -9 -32 -13 -27 -39 8 -36 -11 -37 -20 -1 -8 32
15 54 54 52 24 -1 23 -2 -7 -12z m3499 4 c-12 -8 -51 -4 -51 5 0 2 15 4 33 4
22 0 28 -3 18 -9z m1081 -67 c2 -42 0 -78 -4 -81 -5 -2 -8 18 -8 45 0 27 -3
64 -6 81 -4 19 -2 31 4 31 6 0 12 -32 14 -76z m-1951 46 c12 -7 19 -21 19 -38
l-1 -27 -15 28 c-8 15 -22 27 -32 27 -9 0 -24 5 -32 10 -21 14 35 13 61 0z
m1004 -3 c73 -19 135 -61 135 -92 0 -15 -8 -29 -21 -36 -18 -9 -30 -6 -69 15
-37 20 -62 26 -109 26 -54 0 -62 -3 -78 -26 -21 -32 -33 -130 -25 -191 9 -58
41 -84 111 -91 38 -3 61 1 97 17 36 17 49 19 60 10 25 -21 15 -48 -28 -76 -38
-24 -54 -28 -148 -31 -114 -4 -170 10 -190 48 -6 11 -16 20 -23 20 -24 0 -59
95 -59 159 0 59 20 122 42 136 6 3 10 13 10 22 0 31 80 82 130 83 19 0 42 5
50 10 21 13 57 12 115 -3z m-1682 -23 c-14 -14 -28 -23 -31 -20 -8 8 29 46 44
46 7 0 2 -11 -13 -26z m159 -2 c-20 -15 -22 -23 -16 -60 4 -28 3 -42 -5 -42
-7 0 -11 19 -11 50 0 36 5 52 18 59 28 17 39 12 14 -7z m1224 -28 c-39 -40
-46 -38 -19 7 15 24 40 41 52 33 2 -2 -13 -20 -33 -40z m-1538 -33 l62 -66 63
68 c56 59 68 67 100 67 19 0 38 -3 40 -7 3 -5 -32 -53 -76 -108 -88 -108 -84
-97 -90 -255 l-2 -55 -87 -3 c-49 -1 -88 -1 -89 0 0 2 -3 50 -5 107 -3 75 -8
109 -19 121 -8 9 -15 20 -15 25 0 4 -18 29 -41 54 -83 94 -89 102 -84 111 3 6
45 9 93 9 l87 -1 63 -67z m786 59 c33 -12 48 -42 52 -107 3 -43 0 -57 -16 -73
l-20 -20 20 -28 c26 -35 35 -89 21 -125 -18 -46 -66 -60 -226 -64 -77 -3 -166
-7 -198 -10 -84 -7 -99 9 -97 102 1 38 -1 125 -4 191 l-5 122 47 5 c26 3 103
4 171 2 69 -2 134 1 145 5 29 12 80 12 110 0z m-1050 -16 c3 -8 2 -12 -4 -9
-6 3 -10 10 -10 16 0 14 7 11 14 -7z m-374 -22 c0 -9 -5 -24 -10 -32 -7 -11
-10 -5 -10 23 0 23 4 36 10 32 6 -3 10 -14 10 -23z m1701 16 c2 -21 -2 -43
-10 -51 -4 -4 -7 9 -8 28 -1 32 15 52 18 23z m2859 -28 c-11 -20 -50 -28 -50
-10 0 6 9 10 19 10 11 0 23 5 26 10 12 19 16 10 5 -10z m-4759 -47 c-8 -15
-10 -15 -11 -2 0 17 10 32 18 25 2 -3 -1 -13 -7 -23z m2599 9 c0 -9 -40 -35
-46 -29 -6 6 25 37 37 37 5 0 9 -3 9 -8z m316 -127 c-4 -19 -12 -37 -18 -41
-8 -5 -9 -1 -5 10 4 10 7 36 7 59 1 35 2 39 11 24 6 -10 8 -34 5 -52z m1942
38 c-15 -16 -30 -45 -33 -65 -4 -21 -12 -38 -17 -38 -19 0 3 74 30 103 14 15
30 27 36 27 5 0 -2 -12 -16 -27z m-3855 -16 c-6 -12 -15 -33 -20 -47 -9 -23
-10 -23 -15 -3 -3 12 3 34 14 52 23 35 37 34 21 -2z m3282 -82 c-23 -18 -81
-35 -115 -34 -17 1 -11 5 21 13 25 7 54 18 65 24 30 18 53 15 29 -3z m-2585
-130 c-7 -8 -19 -15 -27 -15 -10 0 -7 8 9 31 18 24 24 27 26 14 2 -9 -2 -22
-8 -30z m-1775 -5 c-4 -12 -9 -19 -12 -17 -3 3 -2 15 2 27 4 12 9 19 12 17 3
-3 2 -15 -2 -27z m820 -29 c-9 -8 -25 21 -25 44 0 16 3 14 15 -9 9 -16 13 -32
10 -35z m2085 47 c0 -17 -31 -48 -47 -48 -11 0 -8 8 9 29 24 32 38 38 38 19z
m-1655 -47 c-11 -10 -35 11 -35 30 0 21 0 21 19 -2 11 -13 18 -26 16 -28z
m1221 24 c13 -14 21 -25 18 -25 -11 0 -54 33 -54 41 0 15 12 10 36 -16z
m-1428 -7 c-3 -7 -18 -14 -34 -15 -20 -1 -22 0 -6 4 12 2 22 9 22 14 0 5 5 9
11 9 6 0 9 -6 7 -12z m3574 -45 c8 -10 6 -13 -11 -13 -18 0 -21 6 -20 38 0 34
1 35 10 13 5 -14 15 -31 21 -38z m-4097 14 c19 -4 19 -4 2 -12 -18 -7 -46 16
-47 39 0 6 6 3 13 -6 6 -9 21 -18 32 -21z m1700 1 c19 -5 19 -5 2 -13 -18 -7
-46 17 -46 40 0 6 5 3 12 -6 7 -9 21 -19 32 -21z m-1970 12 c-3 -5 -21 -9 -38
-9 l-32 2 35 7 c19 4 36 8 38 9 2 0 0 -3 -3 -9z m350 0 c-27 -12 -35 -12 -35
0 0 6 12 10 28 9 24 0 25 -1 7 -9z m1350 0 c-3 -5 -18 -9 -33 -9 l-27 1 30 8
c17 4 31 8 33 9 2 0 0 -3 -3 -9z m355 0 c-19 -13 -30 -13 -30 0 0 6 10 10 23
10 18 0 19 -2 7 -10z m-2324 -35 c-6 -22 -11 -25 -44 -24 -31 2 -32 3 -9 6 18
3 32 14 39 29 14 30 23 24 14 -11z m2839 16 c-14 -14 -73 -26 -60 -13 6 5 19
12 30 15 34 8 40 8 30 -2z m212 -21 l48 -8 -47 -1 c-56 -1 -78 6 -78 26 0 12
3 13 14 3 8 -6 36 -15 63 -20z m116 -1 c-6 -6 -18 -6 -28 -3 -18 7 -18 8 1 14
23 9 39 1 27 -11z m633 -14 c31 5 35 4 21 -5 -9 -6 -34 -10 -55 -8 -31 3 -37
7 -40 28 l-3 25 19 -23 c16 -20 24 -23 58 -17z m939 15 c16 -7 11 -9 -20 -9
-29 -1 -36 2 -25 9 17 11 19 11 45 0z m-5445 -24 c6 -8 21 -16 33 -18 19 -3
20 -4 5 -10 -12 -5 -27 1 -45 17 -16 13 -23 25 -17 25 6 0 17 -6 24 -14z m150
-76 c0 -11 -4 -20 -10 -20 -14 0 -13 -103 1 -117 21 -21 2 -43 -36 -43 -19 0
-35 5 -35 11 0 8 -5 7 -15 -1 -21 -17 -44 2 -28 22 22 26 20 128 -2 128 -8 0
-15 9 -15 19 0 18 8 20 70 20 63 0 70 -2 70 -19z m1189 -63 c17 -32 31 -62 31
-66 0 -14 -43 -21 -57 -9 -7 6 -29 12 -48 14 -26 2 -35 -1 -40 -16 -4 -12 -12
-17 -21 -13 -8 3 -13 12 -10 19 3 8 1 14 -4 14 -18 0 -10 22 9 27 22 6 43 46
35 67 -3 9 5 20 23 30 34 18 38 14 82 -67z m2146 -8 l34 -67 -25 -6 c-14 -4
-31 -3 -37 2 -7 5 -29 12 -49 16 -31 6 -38 4 -38 -9 0 -8 -7 -15 -15 -15 -8 0
-15 7 -15 15 0 8 -4 15 -10 15 -19 0 -10 21 14 30 16 6 27 20 31 40 4 18 16
41 27 52 26 26 40 14 83 -73z m-3205 51 c8 -10 20 -26 27 -36 10 -17 12 -14
12 19 1 36 2 37 37 37 l37 0 -8 -72 c-3 -40 -11 -76 -17 -79 -20 -13 -43 3
-62 42 -27 56 -34 56 -41 4 -7 -42 -9 -44 -34 -39 -35 9 -34 6 -35 71 -1 41 4
62 14 70 18 15 50 7 70 -17z m280 11 c-5 -11 -15 -21 -21 -23 -13 -4 -14 -101
-3 -120 5 -8 1 -9 -10 -5 -10 4 -29 7 -42 7 -22 0 -24 3 -24 55 0 52 -1 55
-26 55 -19 0 -25 5 -22 18 2 13 17 18 68 23 36 3 71 6 78 7 9 2 10 -3 2 -17z
m178 -3 c3 -15 -4 -18 -32 -18 -25 0 -36 -4 -36 -15 0 -10 11 -15 35 -15 24 0
35 -5 35 -15 0 -11 -11 -15 -41 -15 -55 0 -47 -24 9 -28 29 -2 42 -8 42 -18 0
-16 -25 -17 -108 -7 l-53 6 2 56 c3 92 1 90 77 88 55 -2 67 -5 70 -19z m230
10 c18 -18 14 -56 -7 -77 -17 -17 -18 -21 -5 -40 14 -19 13 -21 -4 -21 -10 0
-28 11 -40 25 -24 27 -52 24 -52 -5 0 -24 -9 -29 -43 -23 -26 5 -27 7 -27 73
0 45 4 70 13 73 26 11 153 7 165 -5z m557 -2 c47 -20 47 -40 0 -32 -53 10 -77
-7 -73 -52 l3 -37 48 1 c26 0 47 -3 47 -6 0 -35 -108 -42 -140 -10 -29 29 -27
94 5 125 28 28 60 31 110 11z m213 -8 c3 -15 -4 -18 -38 -18 -50 0 -51 -22 -1
-30 44 -7 44 -24 -1 -28 -54 -5 -52 -32 2 -32 29 0 40 -4 40 -15 0 -17 -28
-19 -104 -9 l-46 7 0 72 0 72 72 -1 c61 -1 73 -4 76 -18z m312 6 c0 -9 -9 -18
-21 -21 -19 -5 -20 -12 -17 -69 3 -63 3 -63 -22 -58 -49 11 -50 12 -50 64 0
43 -3 50 -20 50 -13 0 -20 7 -20 20 0 17 8 20 68 23 37 2 70 4 75 5 4 1 7 -5
7 -14z m155 6 c65 -15 94 -73 62 -125 -14 -24 -25 -28 -92 -33 -44 -3 -54 0
-78 24 -34 34 -36 82 -4 111 37 34 53 37 112 23z m505 -3 c0 -8 -9 -40 -20
-72 -11 -31 -18 -60 -16 -64 3 -4 -9 -8 -25 -9 -25 -2 -31 3 -51 45 l-22 47
-21 -46 c-17 -38 -25 -47 -51 -50 -24 -3 -30 0 -32 17 -1 12 -8 40 -17 64 -21
59 -20 61 20 61 27 0 35 -4 35 -17 0 -10 4 -24 9 -32 7 -11 13 -6 25 23 14 35
18 37 53 34 32 -2 39 -7 41 -28 6 -43 19 -43 36 -1 15 40 36 55 36 28z m136
-4 c27 -45 64 -115 64 -122 0 -13 -42 -22 -54 -12 -6 5 -28 11 -49 15 -32 6
-38 4 -45 -13 -8 -24 -26 -16 -36 16 -5 16 -2 25 13 32 11 6 25 28 32 48 17
55 53 71 75 36z m840 -4 c22 -18 16 -32 -11 -25 -59 15 -94 -18 -74 -71 8 -21
15 -24 47 -22 40 3 66 -7 57 -21 -3 -5 -12 -7 -20 -3 -8 3 -15 1 -15 -4 0 -17
-111 4 -126 24 -26 34 -13 100 25 131 18 14 96 9 117 -9z m816 -54 l37 -70
-25 -8 c-16 -6 -30 -5 -40 3 -22 19 -81 22 -88 4 -7 -19 -26 -18 -26 1 0 8 -4
15 -10 15 -20 0 -9 21 15 30 24 9 30 24 27 63 -1 10 2 16 7 13 5 -3 12 1 15
10 4 9 15 14 28 12 17 -2 33 -22 60 -73z m183 61 c47 -20 47 -40 0 -32 -46 9
-75 -7 -75 -42 0 -45 13 -56 59 -49 30 4 41 2 41 -8 0 -32 -95 -35 -134 -4
-30 24 -34 64 -11 109 22 43 60 51 120 26z m398 4 c19 0 24 -26 6 -32 -13 -4
-16 -42 -5 -84 l7 -32 -55 -1 c-57 0 -68 7 -41 29 17 14 21 90 5 90 -5 0 -10
10 -10 21 0 19 4 21 38 15 20 -3 45 -6 55 -6z m117 0 c5 0 17 -13 27 -30 9
-16 21 -30 25 -30 4 0 8 14 8 30 0 28 3 30 36 30 l36 0 -5 -71 c-2 -42 -9 -74
-17 -79 -15 -9 -50 -1 -50 12 0 5 -11 25 -24 45 l-24 35 -9 -42 c-4 -23 -11
-41 -15 -41 -5 1 -19 1 -32 1 -23 0 -23 2 -20 67 3 66 15 88 42 78 8 -3 18 -5
22 -5z m317 -3 c21 -15 4 -27 -38 -27 -50 0 -49 -23 1 -30 50 -8 51 -30 1 -30
-30 0 -41 -4 -41 -15 0 -11 12 -15 45 -15 33 0 45 -4 45 -15 0 -17 -24 -19
-108 -8 l-54 6 6 66 c3 36 5 69 6 72 0 11 124 7 137 -4z m-4374 -7 c9 0 17 -4
17 -10 0 -5 -16 -10 -35 -10 -28 0 -35 -4 -35 -19 0 -15 8 -21 35 -23 20 -2
35 -7 35 -13 0 -5 -15 -11 -35 -13 -30 -3 -35 -7 -35 -28 0 -18 -5 -24 -23
-24 -13 0 -28 -5 -33 -10 -7 -7 -11 9 -13 51 -1 35 -6 70 -11 79 -7 13 -2 16
28 18 20 2 39 5 41 8 3 3 15 3 26 0 11 -3 28 -6 38 -6z m1856 -14 c23 -21 38
-20 51 4 6 11 17 20 25 20 16 0 20 -16 6 -24 -17 -11 -50 -94 -44 -114 4 -18
0 -20 -34 -19 l-38 2 3 40 c3 33 -1 45 -22 64 -36 34 -34 53 5 47 17 -2 39
-12 48 -20z m299 -18 c-3 -24 -1 -55 3 -70 6 -24 4 -29 -14 -32 -41 -9 -155
-14 -163 -7 -5 3 -10 36 -12 73 l-2 67 67 4 c38 2 81 4 97 5 27 2 28 1 24 -40z
m512 22 c0 -11 4 -20 9 -20 4 0 20 9 34 20 25 20 57 27 57 12 0 -5 -14 -18
-30 -31 l-30 -22 26 -44 c24 -41 24 -45 7 -45 -10 0 -27 14 -37 31 -21 35 -40
34 -44 -4 -3 -22 -8 -27 -32 -27 -39 0 -43 11 -35 86 l7 64 34 0 c27 0 34 -4
34 -20z m511 12 c0 -4 1 -36 2 -72 l2 -65 -32 -3 c-28 -3 -32 0 -39 30 l-7 33
-14 -33 c-16 -40 -34 -41 -51 -2 -16 35 -35 31 -26 -6 6 -22 3 -24 -30 -24
l-36 0 -1 55 c-1 30 -2 61 -3 68 -1 7 14 13 34 15 33 3 38 -1 59 -39 l24 -42
18 24 c10 13 19 29 19 35 0 5 4 14 10 20 11 11 70 16 71 6z m509 -28 c0 -31 3
-35 23 -32 17 2 23 11 25 36 3 29 6 32 36 32 l34 0 1 -75 1 -75 -29 0 c-23 0
-30 5 -35 26 -5 19 -12 25 -29 22 -17 -2 -22 -10 -22 -30 1 -24 -2 -27 -25
-22 -45 10 -50 13 -50 33 0 11 -6 21 -12 24 -10 4 -10 7 0 18 6 7 12 25 12 39
0 34 7 40 42 40 25 0 28 -3 28 -36z"/>
<path d="M800 860 c30 -24 44 -25 36 -4 -3 9 -6 18 -6 20 0 2 -12 4 -27 4
l-28 0 25 -20z"/>
<path d="M310 850 c0 -5 5 -10 10 -10 6 0 10 5 10 10 0 6 -4 10 -10 10 -5 0
-10 -4 -10 -10z"/>
<path d="M366 851 c-8 -12 21 -34 33 -27 6 4 8 13 4 21 -6 17 -29 20 -37 6z"/>
<path d="M920 586 c0 -9 7 -16 16 -16 9 0 14 5 12 12 -6 18 -28 21 -28 4z"/>
<path d="M965 419 c-4 -6 -5 -13 -2 -16 7 -7 27 6 27 18 0 12 -17 12 -25 -2z"/>
<path d="M362 388 c3 -7 15 -14 29 -16 24 -4 24 -3 4 12 -24 19 -38 20 -33 4z"/>
<path d="M4106 883 c-14 -14 -5 -31 14 -26 11 3 20 9 20 13 0 10 -26 20 -34
13z"/>
<path d="M4590 870 c-14 -10 -22 -22 -18 -25 7 -8 57 25 58 38 0 12 -14 8 -40
-13z"/>
<path d="M4380 655 c7 -8 17 -15 22 -15 6 0 5 7 -2 15 -7 8 -17 15 -22 15 -6
0 -5 -7 2 -15z"/>
<path d="M4082 560 c-6 -11 -12 -28 -12 -37 0 -13 6 -10 20 12 11 17 20 33 20
38 0 14 -15 7 -28 -13z"/>
<path d="M4496 466 c3 -9 11 -16 16 -16 13 0 5 23 -10 28 -7 2 -10 -2 -6 -12z"/>
<path d="M4236 445 c-9 -24 5 -41 16 -20 7 11 7 20 0 27 -6 6 -12 3 -16 -7z"/>
<path d="M4540 400 c0 -5 5 -10 11 -10 5 0 7 5 4 10 -3 6 -8 10 -11 10 -2 0
-4 -4 -4 -10z"/>
<path d="M5330 891 c0 -11 26 -22 34 -14 3 3 3 10 0 14 -7 12 -34 11 -34 0z"/>
<path d="M4805 880 c-8 -13 4 -32 16 -25 12 8 12 35 0 35 -6 0 -13 -4 -16 -10z"/>
<path d="M5070 821 l-35 -6 0 -75 0 -75 40 -3 c22 -2 58 3 80 10 38 12 40 16
47 63 12 88 -16 107 -132 86z m109 -36 c3 -19 2 -19 -15 -4 -11 9 -26 19 -34
22 -8 4 -2 5 15 4 21 -1 31 -8 34 -22z"/>
<path d="M5411 694 c0 -11 3 -14 6 -6 3 7 2 16 -1 19 -3 4 -6 -2 -5 -13z"/>
<path d="M5223 674 c-10 -22 -10 -25 3 -20 9 3 18 6 20 6 2 0 4 9 4 20 0 28
-13 25 -27 -6z"/>
<path d="M5001 422 c-14 -27 -12 -35 8 -23 7 5 11 17 9 27 -4 17 -5 17 -17 -4z"/>
<path d="M5673 883 c9 -9 19 -14 23 -11 10 10 -6 28 -24 28 -15 0 -15 -1 1
-17z"/>
<path d="M5866 717 c-14 -10 -16 -16 -7 -22 15 -9 35 8 30 24 -3 8 -10 7 -23
-2z"/>
<path d="M5700 520 c0 -5 5 -10 10 -10 6 0 10 5 10 10 0 6 -4 10 -10 10 -5 0
-10 -4 -10 -10z"/>
<path d="M5700 451 c0 -23 25 -46 34 -32 4 6 -2 19 -14 31 -19 19 -20 19 -20
1z"/>
<path d="M1375 850 c-3 -5 -1 -10 4 -10 6 0 11 5 11 10 0 6 -2 10 -4 10 -3 0
-8 -4 -11 -10z"/>
<path d="M1391 687 c-5 -12 -7 -35 -6 -50 2 -15 -1 -27 -7 -27 -5 0 -6 9 -3
21 5 15 4 19 -4 15 -6 -4 -11 -18 -11 -30 0 -19 7 -25 33 -29 17 -2 42 1 55 7
l22 12 -27 52 c-29 57 -39 63 -52 29z"/>
<path d="M1240 520 c0 -5 5 -10 10 -10 6 0 10 5 10 10 0 6 -4 10 -10 10 -5 0
-10 -4 -10 -10z"/>
<path d="M1575 490 c4 -14 9 -27 11 -29 7 -7 34 9 34 20 0 7 -3 9 -7 6 -3 -4
-15 1 -26 10 -19 17 -19 17 -12 -7z"/>
<path d="M3094 688 c-4 -13 -7 -35 -6 -50 1 -16 -2 -28 -8 -28 -5 0 -6 7 -3
17 4 11 3 14 -5 9 -16 -10 -15 -49 1 -43 6 2 20 0 29 -4 10 -6 27 -5 41 2 28
13 26 30 -8 86 -24 39 -31 41 -41 11z"/>
<path d="M3270 502 c0 -19 29 -47 39 -37 6 7 1 16 -15 28 -13 10 -24 14 -24 9z"/>
<path d="M3570 812 c-13 -10 -21 -24 -19 -31 3 -7 15 0 34 19 31 33 21 41 -15
12z"/>
<path d="M3855 480 c-3 -5 -1 -10 4 -10 6 0 11 5 11 10 0 6 -2 10 -4 10 -3 0
-8 -4 -11 -10z"/>
<path d="M3585 450 c3 -5 13 -10 21 -10 8 0 12 5 9 10 -3 6 -13 10 -21 10 -8
0 -12 -4 -9 -10z"/>
<path d="M1880 820 c0 -5 7 -10 16 -10 8 0 12 5 9 10 -3 6 -10 10 -16 10 -5 0
-9 -4 -9 -10z"/>
<path d="M2042 668 c-7 -7 -12 -23 -12 -37 1 -24 2 -24 16 8 16 37 14 47 -4
29z"/>
<path d="M2015 560 c4 -6 11 -8 16 -5 14 9 11 15 -7 15 -8 0 -12 -5 -9 -10z"/>
<path d="M1915 470 c4 -6 11 -8 16 -5 14 9 11 15 -7 15 -8 0 -12 -5 -9 -10z"/>
<path d="M2320 795 c0 -14 5 -25 10 -25 6 0 10 11 10 25 0 14 -4 25 -10 25 -5
0 -10 -11 -10 -25z"/>
<path d="M2660 771 c0 -6 5 -13 10 -16 6 -3 10 1 10 9 0 9 -4 16 -10 16 -5 0
-10 -4 -10 -9z"/>
<path d="M2487 763 c-4 -3 -7 -23 -7 -43 0 -36 1 -38 40 -43 68 -9 116 20 102
61 -3 10 -7 10 -18 1 -11 -9 -14 -7 -14 10 0 18 -6 21 -48 21 -27 0 -52 -3
-55 -7z"/>
<path d="M2320 719 c0 -5 5 -7 10 -4 6 3 10 8 10 11 0 2 -4 4 -10 4 -5 0 -10
-5 -10 -11z"/>
<path d="M2480 550 l0 -40 66 1 c58 1 67 4 76 25 18 39 -4 54 -78 54 l-64 0 0
-40z m40 15 c-7 -8 -16 -15 -21 -15 -5 0 -6 7 -3 15 4 8 13 15 21 15 13 0 13
-3 3 -15z"/>
<path d="M2665 527 c-4 -10 -5 -21 -1 -24 10 -10 18 4 13 24 -4 17 -4 17 -12
0z"/>
<path d="M1586 205 c-9 -23 -8 -25 9 -25 17 0 19 9 6 28 -7 11 -10 10 -15 -3z"/>
<path d="M3727 200 c-3 -13 0 -20 9 -20 15 0 19 26 5 34 -5 3 -11 -3 -14 -14z"/>
<path d="M1194 229 c-3 -6 -2 -15 3 -20 13 -13 43 -1 43 17 0 16 -36 19 -46 3z"/>
<path d="M2470 224 c-18 -46 -12 -73 15 -80 37 -9 52 1 59 40 5 26 3 41 -8 51
-23 24 -55 18 -66 -11z"/>
<path d="M3120 196 c0 -9 7 -16 16 -16 17 0 14 22 -4 28 -7 2 -12 -3 -12 -12z"/>
<path d="M4750 201 c0 -12 5 -21 10 -21 6 0 10 6 10 14 0 8 -4 18 -10 21 -5 3
-10 -3 -10 -14z"/>
<path d="M3515 229 c-8 -12 14 -31 30 -26 6 2 10 10 10 18 0 17 -31 24 -40 8z"/>
<path d="M3521 161 c-7 -5 -9 -11 -4 -14 14 -9 54 4 47 14 -7 11 -25 11 -43 0z"/>
</g>
</svg>
